<?xml version="1.0" encoding="UTF-8"?>
<svg id="Layer_2" data-name="Layer 2" xmlns="http://www.w3.org/2000/svg" viewBox="0 0 250 250">
  <defs>
    <style>
      .cls-1 {
        fill: #602c8d;
      }

      .cls-2 {
        fill: #f47921;
      }

      .cls-3 {
        fill: #f7983a;
      }

      .cls-4 {
        fill: #ef4b23;
      }

      .cls-5 {
        fill: #923393;
      }
    </style>
  </defs>
  <g id="Layer_1-2" data-name="Layer 1">
    <g>
      <g>
        <g>
          <path class="cls-1" d="M199.19,148.43c-7.43,4.55-13.84,10.5-20.79,15.6l-24.51,17.99c-1.39-6.53-6.59-11.08-13.69-11.83,9.11-3.54,14.92-11.37,14.67-20.88-.23-8.76-5.59-16.17-14.07-19.37,7.25-1.91,12.97-5.65,12.93-13.84v-38.64s-10.05,5.44-14.7,1.74l-20.5-16.31c1.04.03,1.32-.8,1.94-1.48,4.81-5.23,10.44-9.33,16.22-13.51l13.44-9.71c1.45-1.05,4.59-2.75,4.59-2.75l.07-9.05,83.4,60.36c4.72,3.42,7.54,8.4,8.34,13.67,1.22,7.96-2.99,15.33-9.9,19.05-7.22,3.89-16.2,3.17-22.7-1.6l-12.32-9.02c-.48-.35-1.21-.47-1.47-.18-.18.2-.81.63-.82,1.17l-.15,38.57Z"/>
          <path class="cls-5" d="M154.72,26.77l-.07,8.68c-1.4,1.16-3.11,1.7-4.56,2.75l-13.44,9.71c-5.79,4.18-11.42,8.29-16.22,13.51-.62.67-.9,1.51-1.94,1.48l-35.95-27.83L124.94,4.62l29.78,22.15Z"/>
          <path class="cls-4" d="M198.67,221.98c-1.44,10.36-10.99,18.12-22.67,17.85s-21.28-8.38-21.28-19.03v-39.14c-.67,1.19,3.38,2.89,4.69,4.03l5.62,4.93c4.04,3.54,8.44,7.84,12.31,11.65l13.49,13.3c2.46,2.43,4.62,5.24,7.85,6.4Z"/>
          <path class="cls-2" d="M198.35,181.74l.04,36.93c0,1.31-.11,2.29-.26,3.31-3.23-1.16-5.39-3.97-7.85-6.4l-13.49-13.3c-3.86-3.81-8.26-8.11-12.31-11.65l-5.62-4.93c-1.3-1.14-5.35-2.85-4.69-4.03,0-.15.06-.32.02-.46l23.9-17.55c1.74,1.15,3.04,2.94,4.3,4.72,1.5,2.11,3.89,3.11,5.62,4.82l5.33,5.25c1.52,1.49,2.83,3.04,4.99,3.3Z"/>
          <path class="cls-3" d="M198.32,181.74c-2.17-.26-3.48-1.81-4.99-3.3l-5.33-5.25c-1.74-1.71-4.12-2.71-5.62-4.82-1.26-1.77-2.55-3.57-4.3-4.72,6.77-4.97,13.03-10.77,20.27-15.21l-.03,33.3Z"/>
        </g>
        <g>
          <path class="cls-3" d="M141.55,130.3c8.24,3.09,13.45,10.24,13.68,18.7.24,9.18-5.4,16.75-14.26,20.16-1.34.52-3.27.27-4.93.27l-29.58.09c.26-1.18-.98-1.56-1.9-2.25-4.84-3.62-8.91-7.97-13.12-12.16l-4.02-4c-1.21-1.21-2.45-1.96-3.65-3.1l-5.59-5.34-10.31-9.63c-1.36-1.27-8.94-8.27-9.79-8.79-1.57-.96-2.51-2.19-3.77-3.38-1.03-.97-2.29-1.45-2.69-3.01-.18-.7-1.14-1.12-1.73-.96l-.28-8.7.04-47.92,22.28-16.01c5.3,4.24,10.64,8.32,15.64,12.75,3.87,3.43,6.65,8.02,6.66,13.05l.09,47.6c.01,6.28,5.28,11.91,12.12,11.95l31.1.16c1.38,0,2.94.12,4,.51Z"/>
          <path class="cls-4" d="M94.23,197.54l.03,23.06c0,7.24-4.73,13.68-11.65,17.08-7.12,3.5-15.61,3.13-22.56-1.05-6.01-3.61-10.44-9.92-10.44-17.46l.03-64.49c.97.13,1.63.95,2.42,1.69l7.67,7.15c4.84,4.51,9.07,9.08,13.77,13.18,3.3,2.88,6.27,5.87,9.42,8.86l7.16,6.8,2.87,4.29c.34.51.69,1.06,1.27.88Z"/>
          <path class="cls-2" d="M106.26,170.03c-6.29.02-11.95,5.84-12.03,11.5l-.21,15.98c-.58.18-.93-.37-1.27-.88l-2.86-4.28-7.13-6.77c-3.13-2.98-6.09-5.96-9.38-8.82-4.68-4.08-8.9-8.63-13.72-13.12l-7.64-7.12c-.79-.73-1.44-1.55-2.41-1.68l-.03-37.91c.59-.16,1.55.26,1.73.97.39,1.58,1.66,2.06,2.69,3.04,1.27,1.2,2.21,2.44,3.78,3.41.84.52,8.45,7.59,9.81,8.87l10.34,9.72,5.6,5.39c1.19,1.15,2.44,1.91,3.65,3.13l4.03,4.03c4.22,4.23,8.3,8.62,13.15,12.27.93.7,2.17,1.08,1.9,2.27Z"/>
          <path class="cls-4" d="M17.95,82.75c-.06,2.73,2.28,4.72,4.23,6.68l4.29,4.33c2.68,2.7,5.27,5.17,8.12,7.75,1.54,1.4,7.6,9.06,10.25,9.01-2.85,2.4-5.96,4.43-9.16,6.82-5.95,4.46-14.03,5.7-21.27,2.44-6.12-2.76-10.79-8.71-11.18-15.77-.31-5.54,1.93-10.41,5.6-14.59,2.6-2.95,6.33-4.4,9.13-6.67Z"/>
          <path class="cls-2" d="M49.57,108.1c-.97-.57-4.27,1.93-4.84,2.42-2.65.05-8.71-7.61-10.25-9.01-2.84-2.59-5.44-5.05-8.12-7.75l-4.29-4.33c-1.95-1.96-4.29-3.95-4.23-6.68,10.09-8.18,21.19-15.38,31.77-23.04l-.04,48.4Z"/>
        </g>
      </g>
      <path class="cls-2" d="M240.25,227.64c-2.86.26-5.42.14-8.19.07l-.16-9.19-9.76-.15v-7.26s9.41-.14,9.41-.14l.28-9.12,8.38.08.17,8.91,9.5.2c.16,2.55.14,4.93,0,7.47l-9.44.12-.19,9Z"/>
      <path class="cls-2" d="M17.88,184.9c-3.77.54-5.8-16.26-7.93-14.78l-.09-5.56c.32.1.38-.31.44-.53,2.66-.14,4.97-.17,7.58.02l.16,9.11,9.46.14c.13,2.56.23,5.14-.07,7.64l-9.36.23c-.09,1.42-.21,2.61-.19,3.75Z"/>
      <path class="cls-3" d="M185.76,21.02c-1.38.49-2.79.29-4.41.17l-.67-5.64-7.28-2.05c-.27-1.07-.21-2.11-.08-3.3l6.89-.38c.99-2.07.7-4.3,1.46-6.58,1.5-.4,3.2-.31,4.85-.15l1.71,6.23c2.24.87,4.81.61,7.12,1.33.73.23.9,2.52.19,2.8-2.56.98-5.49.81-8.29,1.66-1,1.73-.87,3.69-1.48,5.92Z"/>
      <path class="cls-4" d="M18.27,184.95c.03,1.88.3,3.77-.09,5.79l-8.17-.06-.18-9.47-9.79-.26-.04-7.55,9.66-.19c.24-1.13.32-2.12.3-3.04,2.24-1.48,4.36,15.33,8.31,14.78Z"/>
      <ellipse class="cls-2" cx="68.95" cy="6.94" rx="7.44" ry="6.94"/>
      <ellipse class="cls-1" cx="26.81" cy="33.33" rx="6.94" ry="6.48"/>
      <ellipse class="cls-3" cx="14.41" cy="216.2" rx="6.45" ry="6.02"/>
      <ellipse class="cls-3" cx="235.53" cy="49.54" rx="6.45" ry="6.02"/>
      <ellipse class="cls-2" cx="122.99" cy="209.26" rx="5.95" ry="5.56"/>
      <ellipse class="cls-4" cx="222.64" cy="170.83" rx="5.45" ry="5.09"/>
      <ellipse class="cls-1" cx="122.99" cy="245.37" rx="4.96" ry="4.63"/>
      <ellipse class="cls-2" cx="125.47" cy="101.39" rx="4.46" ry="4.17"/>
      <path class="cls-4" d="M9.6,164.62c.12-.43.28-.52.46-.53-.07.22-.13.63-.46.53Z"/>
    </g>
  </g>
</svg>